<svg xmlns="http://www.w3.org/2000/svg" enable-background="new 0 0 64 64" viewBox="0 0 64 64" id="folder">
  <path fill="#62c5e8" d="M61.9,57.4H4.3c-1.1,0-2.1-0.9-2.1-2.1V13.4c0-1.1,0.9-2.1,2.1-2.1H33c0.8,0,1.5-0.4,1.8-1.1l1.7-3.4
		c0.4-0.7,1.1-1.1,1.8-1.1h23.5c1.1,0,2.1,0.9,2.1,2.1v47.5C64,56.4,63.1,57.4,61.9,57.4z"></path>
  <path fill="#49a8c3" d="M61,58.3H4.3c-1.1,0-2.1-0.9-2.1-2.1V14.3c0-1.1,0.9-2.1,2.1-2.1H33c0.8,0,1.5-0.4,1.8-1.1l1.7-3.4
		c0.4-0.7,1.1-1.1,1.8-1.1h23.5c1.1,0,2.1,0.9,2.1,2.1v46.6C64,56.9,62.7,58.3,61,58.3z"></path>
  <path fill="#70ceea" d="M0,18.6l0,35.8c0,1.7,1.3,3,3,3h58c1.7,0,3-1.3,3-3v-31c0-1.7-1.3-3-3-3H31.8c-0.8,0-1.6-0.3-2.1-0.9l-3-3
		c-0.6-0.6-1.3-0.9-2.1-0.9H3C1.3,15.6,0,17,0,18.6z"></path>
  <path fill="#62c5e8" d="M0,19.5l0,35.8c0,1.7,1.3,3,3,3h58c1.7,0,3-1.3,3-3v-31c0-1.7-1.3-3-3-3H31.8c-0.8,0-1.6-0.3-2.1-0.9l-3-3
		c-0.6-0.6-1.3-0.9-2.1-0.9H3C1.3,16.5,0,17.9,0,19.5z"></path>
</svg>
