<svg width="21" height="12" viewBox="0 0 21 12" fill="none" xmlns="http://www.w3.org/2000/svg">
<path d="M14.6241 6.44457C15.6928 5.72877 16.7586 5.00715 17.8309 4.29884C18.8487 3.62625 20.0462 4.24647 20.277 5.55519C20.4105 6.31226 20.1207 7.13012 19.5346 7.52845C17.613 8.8343 15.6887 10.135 13.7548 11.4158C13.1562 11.8121 12.5397 11.7392 11.9942 11.2535C11.4401 10.7603 11.2654 10.08 11.3954 9.28825C11.5438 8.68552 11.8833 8.28256 12.3465 7.9811C13.1121 7.48274 13.8655 6.95811 14.6241 6.44457Z" fill="url(#paint0_linear_16_288)"/>
<path d="M15.4087 5.92465C14.3427 5.2033 13.274 4.4876 12.2118 3.75894C11.2034 3.06719 11.0653 1.54769 11.9218 0.660161C12.4172 0.146907 13.1694 0.0305984 13.7583 0.423381C15.6889 1.7111 17.6169 3.00427 19.535 4.31697C20.1286 4.72327 20.3827 5.38253 20.2948 6.17633C20.2056 6.98244 19.7878 7.49893 19.1348 7.76366C18.613 7.91522 18.144 7.77365 17.6886 7.45665C16.9356 6.93247 16.1693 6.43393 15.4087 5.92465Z" fill="url(#paint1_linear_16_288)"/>
<path d="M5.69301 5.41435C5.00899 5.86755 4.32458 6.31992 3.6412 6.77451C3.24155 7.04044 2.84618 7.31543 2.44447 7.57692C1.63493 8.10387 0.673132 7.79501 0.214132 6.86686C-0.223921 5.98118 0.0278344 4.8329 0.807459 4.30216C2.71368 3.00463 4.62481 1.71654 6.54285 0.442799C7.1311 0.0522371 7.74141 0.10137 8.28539 0.56836C8.85951 1.06126 9.04748 1.75485 8.91854 2.5679C8.83857 2.76471 8.7908 2.99538 8.67099 3.15036C8.47629 3.4025 8.25492 3.64391 8.00848 3.82119C7.24583 4.36961 6.46605 4.88573 5.69301 5.41435Z" fill="url(#paint2_linear_16_288)"/>
<path d="M4.90868 5.92203C5.5873 6.38615 6.26545 6.85129 6.9447 7.31412C7.34197 7.58486 7.74385 7.84662 8.1389 8.12152C8.93502 8.67577 9.18662 9.80147 8.72683 10.7291C8.28806 11.6144 7.30952 11.9343 6.52553 11.4122C4.60884 10.1358 2.69675 8.84981 0.791885 7.54951C0.207682 7.15072 -0.0609735 6.50977 0.013847 5.72689C0.0927934 4.90052 0.513867 4.36395 1.18217 4.08756C1.36823 4.07008 1.56342 4.0029 1.73845 4.04639C2.02305 4.11708 2.31305 4.21988 2.5679 4.38014C3.35649 4.87609 4.12961 5.40554 4.90868 5.92203Z" fill="url(#paint3_linear_16_288)"/>
<defs>
<linearGradient id="paint0_linear_16_288" x1="15.8318" y1="4.02466" x2="15.8318" y2="11.6713" gradientUnits="userSpaceOnUse">
<stop stop-color="#693B93" stop-opacity="0.53"/>
<stop offset="1" stop-color="#693B93"/>
</linearGradient>
<linearGradient id="paint1_linear_16_288" x1="15.835" y1="0.189209" x2="15.835" y2="7.82464" gradientUnits="userSpaceOnUse">
<stop stop-color="#693B93" stop-opacity="0.53"/>
<stop offset="1" stop-color="#693B93"/>
</linearGradient>
<linearGradient id="paint2_linear_16_288" x1="4.47866" y1="0.180664" x2="4.47866" y2="7.83332" gradientUnits="userSpaceOnUse">
<stop stop-color="#693B93" stop-opacity="0.53"/>
<stop offset="1" stop-color="#693B93"/>
</linearGradient>
<linearGradient id="paint3_linear_16_288" x1="4.47864" y1="4.03198" x2="4.47864" y2="11.664" gradientUnits="userSpaceOnUse">
<stop stop-color="#693B93" stop-opacity="0.53"/>
<stop offset="1" stop-color="#693B93"/>
</linearGradient>
</defs>
</svg>
