<svg width="38" height="42" viewBox="0 0 38 42" fill="none" xmlns="http://www.w3.org/2000/svg">
<path d="M0.372192 0L3.73812 37.7874L18.8512 42L34.0042 37.7727L37.3722 0H0.372192ZM30.3777 8.6583L29.2557 21.2457L29.2599 21.315L29.2557 21.4704L28.4573 30.2694L28.3712 31.0527L18.8722 33.6777L18.8638 33.6861L9.38372 31.0443L8.74079 23.7678H13.3884L13.7182 27.468L18.8722 28.8645L24.0429 27.4491L24.5892 21.4242H13.7813L13.6888 20.4057L13.4766 18.0201L13.3674 16.7391H25.0031L25.4276 12.0519H7.69865L7.60621 11.0334L7.3961 8.6457L7.28474 7.3647H30.4891L30.3777 8.6583Z" fill="url(#paint0_linear_14_61)"/>
<defs>
<linearGradient id="paint0_linear_14_61" x1="18.8722" y1="0" x2="18.8722" y2="42" gradientUnits="userSpaceOnUse">
<stop stop-color="#FDFDFD"/>
<stop offset="1" stop-color="white" stop-opacity="0.18"/>
</linearGradient>
</defs>
</svg>
