<svg width="42" height="42" viewBox="0 0 42 42" fill="none" xmlns="http://www.w3.org/2000/svg">
<path d="M37.5 0H4.5C2.01562 0 0 2.01562 0 4.5V37.5C0 39.9844 2.01562 42 4.5 42H37.5C39.9844 42 42 39.9844 42 37.5V4.5C42 2.01562 39.9844 0 37.5 0ZM22.8562 32.7562C22.8562 36.8438 20.4562 38.7094 16.9594 38.7094C13.8 38.7094 11.9719 37.0781 11.0344 35.1L14.25 33.1594C14.8687 34.2562 15.4312 35.1844 16.7906 35.1844C18.0844 35.1844 18.9094 34.6781 18.9094 32.7V19.2844H22.8562V32.7562ZM32.1937 38.7094C28.5281 38.7094 26.1562 36.9656 25.0031 34.6781L28.2188 32.8219C29.0625 34.2 30.1687 35.2219 32.1094 35.2219C33.7406 35.2219 34.7906 34.4062 34.7906 33.2719C34.7906 31.9219 33.7219 31.4437 31.9125 30.6469L30.9281 30.225C28.0781 29.0156 26.1937 27.4875 26.1937 24.2719C26.1937 21.3094 28.4531 19.0594 31.9687 19.0594C34.4812 19.0594 36.2812 19.9312 37.575 22.2187L34.5 24.1875C33.825 22.9781 33.0938 22.5 31.9594 22.5C30.8062 22.5 30.075 23.2312 30.075 24.1875C30.075 25.3687 30.8062 25.8469 32.5031 26.5875L33.4875 27.0094C36.8438 28.4437 38.7281 29.9156 38.7281 33.2156C38.7281 36.7594 35.9344 38.7094 32.1937 38.7094Z" fill="url(#paint0_linear_14_58)"/>
<defs>
<linearGradient id="paint0_linear_14_58" x1="21" y1="0" x2="21" y2="42" gradientUnits="userSpaceOnUse">
<stop stop-color="#FDFDFD"/>
<stop offset="1" stop-color="white" stop-opacity="0.18"/>
</linearGradient>
</defs>
</svg>
