<svg width="13" height="16" viewBox="0 0 13 16" fill="none" xmlns="http://www.w3.org/2000/svg">
<path d="M11.6071 -0.00878906H1.39286C0.623884 -0.00878906 0 0.718772 0 1.61553V13.5272C0 14.424 0.623884 15.1516 1.39286 15.1516H11.6071C12.3761 15.1516 13 14.424 13 13.5272V1.61553C13 0.718772 12.3761 -0.00878906 11.6071 -0.00878906ZM7.07455 11.8149C7.07455 13.2904 6.3317 13.9638 5.24933 13.9638C4.27143 13.9638 3.70558 13.375 3.4154 12.6609L4.41071 11.9604C4.60223 12.3564 4.77634 12.6914 5.1971 12.6914C5.59754 12.6914 5.8529 12.5087 5.8529 11.7946V6.95211H7.07455V11.8149ZM9.96473 13.9638C8.83013 13.9638 8.09598 13.3343 7.73906 12.5087L8.73438 11.8386C8.99554 12.3361 9.33795 12.7049 9.93862 12.7049C10.4435 12.7049 10.7685 12.4105 10.7685 12.0011C10.7685 11.5138 10.4377 11.3412 9.87768 11.0535L9.57299 10.9012C8.69085 10.4647 8.10759 9.91312 8.10759 8.7524C8.10759 7.68306 8.80692 6.8709 9.89509 6.8709C10.6728 6.8709 11.2299 7.18561 11.6304 8.01131L10.6786 8.72195C10.4696 8.28541 10.2433 8.11283 9.89219 8.11283C9.53527 8.11283 9.30893 8.37678 9.30893 8.72195C9.30893 9.14833 9.53527 9.32092 10.0605 9.58825L10.3652 9.74053C11.404 10.2583 11.9873 10.7896 11.9873 11.9807C11.9873 13.2599 11.1225 13.9638 9.96473 13.9638Z" fill="url(#paint0_linear_16_280)"/>
<defs>
<linearGradient id="paint0_linear_16_280" x1="6.5" y1="-0.00878906" x2="6.5" y2="15.1516" gradientUnits="userSpaceOnUse">
<stop stop-color="#693B93" stop-opacity="0.53"/>
<stop offset="1" stop-color="#693B93"/>
</linearGradient>
</defs>
</svg>
