<svg width="16" height="23" viewBox="0 0 16 23" fill="none" xmlns="http://www.w3.org/2000/svg">
<path d="M7.99642 22.9484C7.75649 22.9484 7.51298 22.8693 7.3017 22.7198L5.09221 21.115C4.76276 20.8864 4.9239 20.8072 5.03133 20.7633C5.4718 20.5742 5.56133 20.5346 6.03044 20.2049C6.08057 20.1697 6.14503 20.1829 6.19517 20.2225L7.89257 21.4579C7.95345 21.5019 8.03939 21.5019 8.09669 21.4579L14.7108 16.771C14.7717 16.727 14.8111 16.6391 14.8111 16.5512V7.1773C14.8111 7.08497 14.7717 7.00143 14.7073 6.95306L8.09669 2.27052C8.03581 2.22656 7.95345 2.22656 7.89257 2.27052L1.28559 6.95746C1.22113 7.00143 1.18174 7.08936 1.18174 7.18169V16.5512C1.18174 16.6391 1.22113 16.727 1.28559 16.7666L3.09758 18.0505C4.08236 18.6528 4.68398 17.9449 4.68398 17.2283V7.97751C4.68398 7.8456 4.76992 7.74448 4.87735 7.74448H5.71531C5.81916 7.74448 5.90868 7.8456 5.90868 7.97751V17.2327C5.90868 18.8419 5.19248 19.7652 3.94987 19.7652C3.5667 19.7652 3.26589 19.7652 2.42793 19.2552L0.694718 18.0285C0.264996 17.7251 0 17.1579 0 16.5468V7.1773C0 6.57055 0.264996 5.99897 0.694718 5.69559L7.3017 1.00865C7.72068 0.718469 8.27574 0.718469 8.69114 1.00865L15.3053 5.69999C15.735 6.00336 16 6.57055 16 7.18169V16.5512C16 17.1579 15.735 17.7251 15.3053 18.0329L8.69114 22.7198C8.47986 22.8693 8.23993 22.9484 7.99642 22.9484ZM13.3357 13.7109C13.3357 11.9566 12.3688 11.4905 10.3384 11.1608C8.2829 10.8266 8.0752 10.6551 8.0752 10.066C8.0752 9.57792 8.25067 8.92721 9.7726 8.92721C11.1298 8.92721 11.6312 9.28774 11.8389 10.4133C11.8568 10.5188 11.9355 10.598 12.0251 10.598H12.8845C12.9382 10.598 12.9884 10.5716 13.0242 10.5232C13.06 10.4749 13.0779 10.4089 13.0743 10.343C12.9418 8.40399 11.8926 7.50266 9.7726 7.50266C7.88541 7.50266 6.76097 8.47874 6.76097 10.1187C6.76097 11.895 7.88183 12.3874 9.69024 12.6073C11.8568 12.8667 12.0251 13.258 12.0251 13.7812C12.0251 14.687 11.4306 15.0739 10.0376 15.0739C8.28648 15.0739 7.90331 14.5331 7.7744 13.4647C7.76007 13.3503 7.68129 13.2668 7.5846 13.2668H6.72874C6.62131 13.2668 6.53894 13.3723 6.53894 13.4998C6.53894 14.8672 7.14414 16.4984 10.0412 16.4984C12.1325 16.494 13.3357 15.4784 13.3357 13.7109Z" fill="url(#paint0_linear_16_281)"/>
<defs>
<linearGradient id="paint0_linear_16_281" x1="8" y1="0.791016" x2="8" y2="22.9484" gradientUnits="userSpaceOnUse">
<stop stop-color="#693B93" stop-opacity="0.53"/>
<stop offset="1" stop-color="#693B93"/>
</linearGradient>
</defs>
</svg>
