<svg width="43" height="42" viewBox="0 0 43 42" fill="none" xmlns="http://www.w3.org/2000/svg">
<path d="M31.6149 39.3776C31.4587 39.4603 31.4718 39.4865 31.6215 39.4104C31.6676 39.3916 31.7098 39.3644 31.7461 39.3303C31.7461 39.3028 31.7461 39.3028 31.6149 39.3776ZM31.9299 39.2069C31.8551 39.2686 31.8551 39.2686 31.9443 39.2279C31.9773 39.2125 32.0075 39.1917 32.0336 39.1663C32.0336 39.1308 32.0126 39.1387 31.9299 39.2069ZM32.1346 39.0836C32.0598 39.1453 32.0598 39.1453 32.1491 39.1046C32.1822 39.0888 32.2124 39.0675 32.2383 39.0416C32.2383 39.0088 32.2173 39.0153 32.1346 39.0836ZM32.342 38.9615C32.2672 39.0232 32.2672 39.0232 32.3538 38.9812C32.4024 38.9549 32.4431 38.9274 32.4431 38.9195C32.4431 38.8867 32.4221 38.8933 32.342 38.9615ZM32.6216 38.7764C32.4785 38.8723 32.4286 38.9339 32.5599 38.8657C32.6478 38.8119 32.7974 38.6937 32.7712 38.6937C32.7147 38.7147 32.6675 38.7502 32.6202 38.7764H32.6216ZM20.0705 0.00964711C19.9747 0.0162097 19.6873 0.0424603 19.4353 0.0634607C13.4662 0.604222 7.8817 3.81729 4.342 8.76682C2.38587 11.4815 1.11435 14.6284 0.635619 17.9401C0.466312 19.0951 0.445312 19.4364 0.445312 21.0022C0.445312 22.5667 0.466312 22.9027 0.635619 24.0578C1.77877 31.9474 7.39084 38.5704 14.9979 41.0248C16.3668 41.4619 17.8013 41.7637 19.4353 41.9488C20.0705 42.0171 22.8175 42.0171 23.4527 41.9488C26.2771 41.6338 28.6619 40.9369 31.0217 39.7333C31.3839 39.5495 31.4522 39.5009 31.4036 39.4603C30.2524 37.9385 29.111 36.4094 27.9794 34.873L24.6234 30.3408L20.4196 24.1129C19.0213 22.0276 17.6086 19.952 16.1817 17.8863C16.1673 17.8863 16.1489 20.6544 16.141 24.0302C16.1266 29.9431 16.1266 30.1833 16.0518 30.3198C15.98 30.4847 15.8515 30.6184 15.6895 30.6965C15.5596 30.7582 15.4428 30.7713 14.822 30.7713H14.1119L13.9269 30.6558C13.811 30.5815 13.7168 30.4778 13.6539 30.3553L13.5647 30.1702L13.5712 21.9393L13.5857 13.7085L13.7156 13.5444C13.7986 13.4436 13.9007 13.3601 14.0161 13.299C14.1881 13.2163 14.2563 13.2032 14.9664 13.2032C15.7998 13.2032 15.9376 13.236 16.1568 13.4762C17.8597 16.0092 19.548 18.552 21.2215 21.1046C23.9501 25.2417 27.6749 30.8868 29.5058 33.6563L32.8355 38.6951L32.9995 38.5861C34.5998 37.5227 36.0499 36.2491 37.311 34.7995C39.9563 31.7716 41.6728 28.0453 42.255 24.0669C42.4243 22.9119 42.4453 22.5694 42.4453 21.0048C42.4453 19.439 42.4243 19.1043 42.255 17.9493C41.1119 10.0597 35.4998 3.43665 27.8928 0.980917C26.4711 0.530617 25.0078 0.224137 23.5249 0.0660858C23.1272 0.0253974 20.4131 -0.0231661 20.0718 0.0122722L20.0705 0.00964711ZM28.6632 12.711C28.7608 12.7589 28.8479 12.8259 28.9194 12.9079C28.9908 12.99 29.0451 13.0854 29.0792 13.1887C29.1147 13.299 29.1212 15.5815 29.1147 20.7226L29.1002 28.1043L27.8022 26.1092L26.4963 24.1129V18.7538C26.4963 15.2796 26.5107 13.3318 26.5291 13.236C26.5934 13.0163 26.7407 12.8303 26.9399 12.7175C27.1027 12.6348 27.1657 12.6283 27.8153 12.6283C28.423 12.6283 28.5267 12.6348 28.6632 12.711Z" fill="url(#paint0_linear_14_59)"/>
<defs>
<linearGradient id="paint0_linear_14_59" x1="21.4453" y1="0" x2="21.4453" y2="42" gradientUnits="userSpaceOnUse">
<stop stop-color="#FDFDFD"/>
<stop offset="1" stop-color="white" stop-opacity="0.18"/>
</linearGradient>
</defs>
</svg>
