<svg width="21" height="22" viewBox="0 0 21 22" fill="none" xmlns="http://www.w3.org/2000/svg">
<path d="M20.0931 10.7486C20.0931 9.19625 18.4263 7.7249 15.8702 6.81299C16.4605 3.77559 16.1984 1.35816 15.0431 0.583923C14.7631 0.401074 14.4463 0.309036 14.1255 0.317382V1.3816C14.3139 1.3816 14.4654 1.42553 14.5926 1.50657C15.1494 1.87953 15.3914 3.29718 15.203 5.12197C15.1578 5.57109 15.0841 6.04364 14.9937 6.52595C14.1377 6.28541 13.269 6.11157 12.3933 6.00556C11.8716 5.16619 11.3024 4.36837 10.6896 3.61742C12.0249 2.17048 13.2782 1.37769 14.1305 1.37769V0.3125C13.0036 0.3125 11.5293 1.24881 10.0382 2.87247C8.54796 1.25955 7.07279 0.332027 5.94673 0.332027V1.39624C6.79483 1.39624 8.05233 2.18513 9.38769 3.6223C8.81419 4.32527 8.2407 5.12197 7.69568 6.00556C6.81814 6.11039 5.94787 6.2859 5.0911 6.53083C5.00055 6.0737 4.92931 5.61166 4.87761 5.14638C4.68505 3.32061 4.92282 1.90296 5.47622 1.52609C5.59845 1.44018 5.75836 1.40112 5.94673 1.40112V0.336909C5.60348 0.336909 5.2912 0.422827 5.02161 0.60345C3.87044 1.37769 3.61258 3.78926 4.20617 6.81788C1.65852 7.73564 0 9.20113 0 10.7486C0 12.301 1.66689 13.7724 4.22291 14.6833C3.63267 17.7217 3.89472 20.1391 5.05008 20.9124C5.31631 21.094 5.62776 21.1799 5.97101 21.1799C7.0979 21.1799 8.57224 20.2436 10.0633 18.6199C11.5536 20.2338 13.0279 21.1604 14.1548 21.1604C14.478 21.1683 14.7973 21.076 15.0799 20.8928C16.2311 20.1196 16.4889 17.708 15.8954 14.6794C18.4346 13.7675 20.0931 12.2961 20.0931 10.7486ZM14.7601 7.56283C14.601 8.20121 14.4166 8.83066 14.2075 9.44912C13.8652 8.67269 13.4894 7.91701 13.0815 7.18498C13.6633 7.28554 14.2243 7.40954 14.7609 7.56283H14.7601ZM12.8847 12.6496C12.5781 13.2739 12.2488 13.8827 11.8977 14.4744C10.6688 14.6007 9.43293 14.6023 8.20386 14.4792C7.49889 13.3049 6.88235 12.0616 6.36116 10.7633C6.88155 9.46192 7.49547 8.21425 8.19633 7.03365C9.42485 6.90708 10.6605 6.90512 11.8893 7.02779C12.2292 7.59602 12.5616 8.20331 12.8805 8.84379C13.192 9.46865 13.475 10.1033 13.7328 10.7438C13.4721 11.392 13.1892 12.0278 12.8847 12.6496ZM14.2075 12.0286C14.4286 12.6681 14.6178 13.3086 14.7726 13.9296C14.2368 14.0828 13.6709 14.2117 13.0857 14.3113C13.4919 13.5726 13.8663 12.8108 14.2075 12.0286ZM10.0549 17.1251C9.67401 16.6663 9.29308 16.1556 8.91633 15.5962C9.28471 15.6157 9.66146 15.6304 10.0424 15.6304C10.4275 15.6304 10.8084 15.6206 11.181 15.5962C10.8126 16.1556 10.4317 16.6663 10.0549 17.1251ZM7.00748 14.3113C6.44299 14.2159 5.88257 14.0902 5.32803 13.9344C5.47957 13.3184 5.66794 12.6828 5.88059 12.0481C6.04887 12.4289 6.22553 12.8116 6.41809 13.1944C6.61065 13.5761 6.80655 13.9491 7.00748 14.3113ZM10.034 4.37214C10.4149 4.83102 10.7959 5.34165 11.1726 5.90109C10.8043 5.88156 10.4275 5.86692 10.0466 5.86692C9.66146 5.86692 9.28052 5.87668 8.90796 5.90109C9.27634 5.34165 9.65727 4.83102 10.034 4.37214ZM7.0033 7.18596C6.59714 7.92303 6.22272 8.68324 5.88143 9.46377C5.66645 8.84131 5.47785 8.20689 5.31631 7.56283C5.85213 7.41442 6.41809 7.28554 7.0033 7.18596ZM3.29695 13.1651C1.8469 12.4445 0.909215 11.4985 0.909215 10.7486C0.909215 9.9988 1.8469 9.04784 3.29695 8.33218C3.64858 8.15547 4.0337 7.9973 4.43138 7.84987C4.66496 8.78521 4.97222 9.7596 5.35231 10.7584C4.99345 11.6978 4.68996 12.6647 4.44393 13.6523C4.05501 13.5118 3.67222 13.3493 3.29695 13.1651ZM5.5005 19.9897C4.94375 19.6187 4.7018 18.1991 4.89017 16.3753C4.93538 15.9262 5.00905 15.4527 5.09947 14.9703C5.90153 15.1998 6.77809 15.3765 7.69986 15.4917C8.22159 16.3311 8.79077 17.1289 9.40359 17.8798C8.06824 19.3268 6.81493 20.1196 5.96264 20.1196C5.80185 20.1216 5.64311 20.0774 5.5005 19.9907V19.9897ZM15.2155 16.3509C15.4081 18.1757 15.1703 19.5943 14.6169 19.9712C14.4947 20.0571 14.3348 20.0952 14.1464 20.0952C13.2983 20.0952 12.0408 19.3073 10.7055 17.8691C11.3157 17.1213 11.8811 16.3253 12.3975 15.4868C13.275 15.382 14.1453 15.2065 15.002 14.9616C15.0967 15.4439 15.1695 15.9067 15.2155 16.3509ZM16.792 13.1651C16.4404 13.3418 16.0553 13.5 15.6576 13.6474C15.4072 12.6548 15.0996 11.683 14.7366 10.7389C15.1134 9.74593 15.4156 8.77642 15.645 7.84499C16.0352 7.98589 16.4194 8.14848 16.7962 8.33218C18.2463 9.05273 19.1839 9.9988 19.1839 10.7486C19.1797 11.4985 18.2421 12.4494 16.792 13.1651Z" fill="url(#paint0_linear_16_276)"/>
<path d="M10.0424 12.9311C10.5389 12.9311 11.0151 12.7011 11.3661 12.2917C11.7172 11.8823 11.9144 11.327 11.9144 10.748C11.9144 10.169 11.7172 9.61374 11.3661 9.20433C11.0151 8.79492 10.5389 8.56491 10.0424 8.56491C9.54593 8.56491 9.06978 8.79492 8.71871 9.20433C8.36764 9.61374 8.17041 10.169 8.17041 10.748C8.17041 11.327 8.36764 11.8823 8.71871 12.2917C9.06978 12.7011 9.54593 12.9311 10.0424 12.9311Z" fill="url(#paint1_linear_16_276)"/>
<defs>
<linearGradient id="paint0_linear_16_276" x1="10.0466" y1="0.3125" x2="10.0466" y2="21.1799" gradientUnits="userSpaceOnUse">
<stop stop-color="#693B93" stop-opacity="0.53"/>
<stop offset="1" stop-color="#693B93"/>
</linearGradient>
<linearGradient id="paint1_linear_16_276" x1="10.0424" y1="8.56491" x2="10.0424" y2="12.9311" gradientUnits="userSpaceOnUse">
<stop stop-color="#693B93" stop-opacity="0.53"/>
<stop offset="1" stop-color="#693B93"/>
</linearGradient>
</defs>
</svg>
