<svg width="48" height="42" viewBox="0 0 48 42" fill="none" xmlns="http://www.w3.org/2000/svg">
<path d="M24.3175 16.8729C26.5691 16.8729 28.4054 18.7072 28.4054 21C28.4054 23.1836 26.5691 25.0397 24.3175 25.0397C22.0659 25.0397 20.2296 23.1836 20.2296 21C20.2296 18.7072 22.0659 16.8729 24.3175 16.8729ZM14.1961 38.469C15.5733 39.2988 18.5901 38.0323 22.0659 34.7568C20.9291 33.4685 19.8142 32.071 18.7649 30.608C17.0033 30.4396 15.252 30.1771 13.5184 29.8218C12.4036 34.4948 12.8189 37.7047 14.1961 38.469ZM15.7482 25.935L15.1142 24.8213C14.8738 25.4546 14.6333 26.0878 14.4803 26.6993C15.0705 26.8303 15.7263 26.9395 16.404 27.0486L15.7482 25.935ZM30.0449 24.2754L31.8156 21L30.0449 17.7246C29.3891 16.5672 28.6896 15.5409 28.0556 14.5146C26.8752 14.4491 25.6291 14.4491 24.3175 14.4491C23.0059 14.4491 21.7598 14.4491 20.5794 14.5146C19.9454 15.5409 19.2459 16.5672 18.5901 17.7246L16.8194 21L18.5901 24.2754C19.2459 25.4328 19.9454 26.4591 20.5794 27.4854C21.7598 27.5509 23.0059 27.5509 24.3175 27.5509C25.6291 27.5509 26.8752 27.5509 28.0556 27.4854C28.6896 26.4591 29.3891 25.4328 30.0449 24.2754ZM24.3175 9.60147C23.9022 10.0819 23.4649 10.5841 23.0277 11.1737H25.6073C25.1701 10.5841 24.7329 10.0819 24.3175 9.60147ZM24.3175 32.3985C24.7329 31.9181 25.1701 31.4159 25.6073 30.8263H23.0277C23.4649 31.4159 23.9022 31.9181 24.3175 32.3985ZM34.417 3.53099C33.0617 2.70122 30.0449 3.96772 26.5691 7.24316C27.7059 8.5315 28.8208 9.92902 29.8701 11.392C31.6626 11.5667 33.4333 11.8288 35.1166 12.1782C36.2315 7.50519 35.8161 4.29526 34.417 3.53099ZM32.8868 16.065L33.5208 17.1787C33.7612 16.5454 34.0017 15.9122 34.1547 15.3007C33.5645 15.1697 32.9087 15.0605 32.231 14.9514L32.8868 16.065ZM36.0566 0.670445C39.2701 2.50469 39.6198 7.3305 38.2645 12.9643C43.817 14.602 47.8175 17.3097 47.8175 21C47.8175 24.6903 43.817 27.398 38.2645 29.0357C39.6198 34.6695 39.2701 39.4953 36.0566 41.3296C32.8649 43.1638 28.5147 41.0675 24.3175 37.0715C20.1203 41.0675 15.7701 43.1638 12.5566 41.3296C9.36495 39.4953 9.01518 34.6695 10.3705 29.0357C4.81797 27.398 0.817505 24.6903 0.817505 21C0.817505 17.3097 4.81797 14.602 10.3705 12.9643C9.01518 7.3305 9.36495 2.50469 12.5566 0.670445C15.7701 -1.1638 20.1203 0.93248 24.3175 4.92851C28.5147 0.93248 32.8649 -1.1638 36.0566 0.670445ZM35.4226 21C36.1659 22.6377 36.8217 24.2754 37.3682 25.935C41.9589 24.5593 44.5384 22.594 44.5384 21C44.5384 19.406 41.9589 17.4407 37.3682 16.065C36.8217 17.7246 36.1659 19.3623 35.4226 21ZM13.2124 21C12.4691 19.3623 11.8133 17.7246 11.2668 16.065C6.67611 17.4407 4.09657 19.406 4.09657 21C4.09657 22.594 6.67611 24.5593 11.2668 25.935C11.8133 24.2754 12.4691 22.6377 13.2124 21ZM32.8868 25.935L32.231 27.0486C32.9087 26.9395 33.5645 26.8303 34.1547 26.6993C34.0017 26.0878 33.7612 25.4546 33.5208 24.8213L32.8868 25.935ZM26.5691 34.7568C30.0449 38.0323 33.0617 39.2988 34.417 38.469C35.8161 37.7047 36.2315 34.4948 35.1166 29.8218C33.4333 30.1712 31.6626 30.4333 29.8701 30.608C28.8208 32.071 27.7059 33.4685 26.5691 34.7568ZM15.7482 16.065L16.404 14.9514C15.7263 15.0605 15.0705 15.1697 14.4803 15.3007C14.6333 15.9122 14.8738 16.5454 15.1142 17.1787L15.7482 16.065ZM22.0659 7.24316C18.5901 3.96772 15.5733 2.70122 14.1961 3.53099C12.8189 4.29526 12.4036 7.50519 13.5184 12.1782C15.252 11.8229 17.0033 11.5604 18.7649 11.392C19.8142 9.92902 20.9291 8.5315 22.0659 7.24316Z" fill="url(#paint0_linear_14_62)"/>
<defs>
<linearGradient id="paint0_linear_14_62" x1="24.3175" y1="0" x2="24.3175" y2="42" gradientUnits="userSpaceOnUse">
<stop stop-color="#FDFDFD"/>
<stop offset="1" stop-color="white" stop-opacity="0.18"/>
</linearGradient>
</defs>
</svg>
