<svg width="79" height="50" viewBox="0 0 79 50" fill="none" xmlns="http://www.w3.org/2000/svg">
<path d="M0 49.5L15.9763 42.81L2.19442 32.3191L0 49.5ZM77.2555 3.47808C78.0718 3.33699 78.6192 2.56085 78.4781 1.74453C78.337 0.928205 77.5609 0.380822 76.7445 0.521915L77.2555 3.47808ZM9.34929 39.6938C19.7311 26.6297 27.7619 19.1873 37.5734 14.2014C47.4337 9.19072 59.2068 6.59761 77.2555 3.47808L76.7445 0.521915C58.7288 3.63574 46.5301 6.28478 36.2143 11.527C25.8497 16.7939 17.5001 24.6152 7.00061 37.8273L9.34929 39.6938Z" fill="url(#paint0_linear_2021_3)"/>
<defs>
<linearGradient id="paint0_linear_2021_3" x1="513.75" y1="223" x2="513.75" y2="300" gradientUnits="userSpaceOnUse">
<stop stop-color="#5BADFF"/>
<stop offset="1" stop-color="#376899"/>
</linearGradient>
</defs>
</svg>
