<svg width="299" height="217" viewBox="0 0 299 217" fill="none" xmlns="http://www.w3.org/2000/svg">
<path d="M116.798 183.903L111.668 187.21L120.344 200.669L122.828 184.849L116.798 183.903ZM161.559 19.7802L155.562 20.92V20.92L161.559 19.7802ZM233.447 183.903C233.447 201.881 248.021 216.456 266 216.456C283.979 216.456 298.553 201.881 298.553 183.903C298.553 165.924 283.979 151.349 266 151.349C248.021 151.349 233.447 165.924 233.447 183.903ZM5.86982 23.0873L111.668 187.21L121.928 180.595L16.1302 16.4731L5.86982 23.0873ZM116.798 183.903C122.828 184.849 122.828 184.849 122.828 184.847C122.828 184.846 122.829 184.844 122.829 184.84C122.83 184.834 122.832 184.824 122.834 184.812C122.838 184.786 122.844 184.747 122.852 184.695C122.868 184.591 122.893 184.436 122.925 184.232C122.99 183.822 123.087 183.214 123.213 182.422C123.467 180.839 123.84 178.522 124.319 175.59C125.276 169.728 126.656 161.411 128.345 151.601C131.723 131.971 136.33 106.401 141.256 82.5611C146.209 58.5893 151.402 36.7826 155.911 24.4389C157.033 21.3674 158.033 19.1082 158.875 17.6228C159.297 16.8802 159.593 16.4851 159.738 16.3193C159.932 16.0987 159.658 16.5063 158.85 16.8184C157.77 17.2362 156.367 17.2271 155.155 16.574C154.225 16.0731 153.951 15.4809 154.078 15.6969C154.345 16.1531 154.939 17.6397 155.562 20.92L167.555 18.6404C166.879 15.0823 165.985 11.8675 164.606 9.51887C163.91 8.33247 162.773 6.81198 160.945 5.82691C158.834 4.68964 156.497 4.64043 154.449 5.43219C152.674 6.11828 151.4 7.31395 150.565 8.26536C149.681 9.27159 148.919 10.4325 148.257 11.5998C146.933 13.9344 145.664 16.9108 144.444 20.2503C139.586 33.5508 134.239 56.1939 129.301 80.0911C124.336 104.12 119.703 129.839 116.314 149.53C114.619 159.38 113.233 167.732 112.271 173.623C111.79 176.568 111.414 178.899 111.159 180.494C111.032 181.292 110.934 181.906 110.868 182.321C110.835 182.529 110.81 182.687 110.794 182.793C110.785 182.846 110.779 182.887 110.775 182.914C110.772 182.927 110.771 182.938 110.77 182.945C110.769 182.948 110.769 182.951 110.769 182.953C110.768 182.955 110.768 182.956 116.798 183.903ZM155.562 20.92C160.832 48.6456 172.442 90.2733 190.271 125.136C199.183 142.561 209.806 158.613 222.225 170.382C234.675 182.182 249.304 190.006 266 190.006V177.799C253.398 177.799 241.622 171.947 230.622 161.521C219.589 151.066 209.714 136.344 201.14 119.578C183.997 86.0557 172.684 45.6222 167.555 18.6404L155.562 20.92Z" fill="url(#paint0_linear_3_6)"/>
<path d="M19.5503 14.2684C16.5062 9.54624 10.2104 8.18584 5.48823 11.2299C0.766027 14.274 -0.594373 20.5698 2.44969 25.292L19.5503 14.2684ZM116.798 183.903L108.248 189.414L122.708 211.846L126.848 185.481L116.798 183.903ZM161.559 19.7802L151.565 21.6799V21.6799L161.559 19.7802ZM2.44969 25.292L108.248 189.414L125.348 178.391L19.5503 14.2684L2.44969 25.292ZM116.798 183.903C126.848 185.481 126.848 185.48 126.848 185.479C126.848 185.477 126.848 185.475 126.849 185.472C126.85 185.466 126.851 185.457 126.853 185.444C126.857 185.419 126.863 185.38 126.871 185.329C126.888 185.226 126.912 185.072 126.944 184.868C127.009 184.461 127.105 183.855 127.232 183.065C127.484 181.486 127.856 179.173 128.334 176.246C129.291 170.393 130.669 162.088 132.355 152.291C135.73 132.682 140.328 107.162 145.241 83.3844C150.199 59.3878 155.34 37.8599 159.733 25.8351C160.822 22.8529 161.733 20.8327 162.415 19.6305C162.756 19.0295 162.897 18.8896 162.796 19.0039C162.776 19.0269 161.986 19.969 160.318 20.6139C158.194 21.4348 155.545 21.4062 153.225 20.1563C151.376 19.1601 150.631 17.8636 150.568 17.7562C150.466 17.5816 150.959 18.4921 151.565 21.6799L171.552 17.8805C170.859 14.2299 169.864 10.439 168.116 7.45953C167.23 5.94968 165.623 3.72495 162.875 2.24455C159.656 0.510485 156.073 0.441833 152.981 1.63678C150.346 2.65559 148.556 4.3857 147.507 5.58072C146.377 6.8671 145.46 8.2832 144.718 9.59211C143.233 12.2098 141.875 15.4253 140.622 18.8542C135.647 32.4735 130.248 55.3954 125.316 79.2677C120.338 103.36 115.697 129.128 112.304 148.84C110.606 158.703 109.219 167.067 108.255 172.967C107.773 175.917 107.397 178.252 107.141 179.852C107.013 180.652 106.915 181.268 106.849 181.685C106.816 181.893 106.791 182.052 106.774 182.159C106.766 182.213 106.759 182.254 106.755 182.281C106.753 182.295 106.751 182.306 106.75 182.313C106.749 182.316 106.749 182.319 106.749 182.321C106.748 182.323 106.748 182.324 116.798 183.903ZM151.565 21.6799C156.882 49.6535 168.591 91.6792 186.648 126.989C195.672 144.634 206.545 161.129 219.426 173.335C232.36 185.593 247.94 194.075 266 194.075V173.73C254.762 173.73 243.938 168.535 233.421 158.568C222.85 148.55 213.225 134.272 204.763 117.725C187.848 84.6499 176.634 44.6144 171.552 17.8805L151.565 21.6799Z" fill="url(#paint1_linear_3_6)"/>
<defs>
<linearGradient id="paint0_linear_3_6" x1="138.5" y1="19.7802" x2="138.5" y2="183.903" gradientUnits="userSpaceOnUse">
<stop stop-color="#FFEDE0"/>
<stop offset="1" stop-color="#E2E2E2"/>
</linearGradient>
<linearGradient id="paint1_linear_3_6" x1="138.5" y1="19.7802" x2="138.5" y2="183.903" gradientUnits="userSpaceOnUse">
<stop stop-color="#FFEDE0"/>
<stop offset="1" stop-color="#E2E2E2"/>
</linearGradient>
</defs>
</svg>
